<svg xmlns="http://www.w3.org/2000/svg" width="23" height="21" viewBox="0 0 23 21" fill="none">
    <path id="Vector" d="M12.221,2.406L12.221,2.406L11.374,3.357L11.001,3.777L10.627,3.357L9.78,2.405C7.783,0.153 4.598,-0.17 2.477,1.802C-0.018,4.125 -0.155,8.324 2.085,10.85L10.399,20.215C10.399,20.215 10.399,20.215 10.399,20.215C10.737,20.596 11.259,20.596 11.598,20.215C11.598,20.215 11.598,20.215 11.598,20.215L19.912,10.849L19.912,10.849C22.156,8.323 22.019,4.125 19.525,1.802C17.193,-0.027 14.764,0.063 12.221,2.406ZM12.221,2.406C14.223,0.152 17.404,-0.169 19.524,1.802C17.28,0.082 14.888,-0.153 12.221,2.406Z" style="fill:none;fill-rule:nonzero;stroke:rgb(16,16,16);stroke-width:1px;"/>
</svg>